<svg width="271" height="25" viewBox="0 0 271 25" fill="none" xmlns="http://www.w3.org/2000/svg">
<path d="M35.584 18.9736L32.176 7.7736H34.64L36.464 14.0296C36.5387 14.2536 36.6027 14.4989 36.656 14.7656C36.72 15.0216 36.768 15.2723 36.8 15.5176C36.8427 15.7523 36.8747 15.9763 36.896 16.1896C36.928 16.3923 36.9547 16.5629 36.976 16.7016L36.592 16.6856C36.688 16.2376 36.768 15.8643 36.832 15.5656C36.896 15.2563 36.9547 14.9843 37.008 14.7496C37.072 14.5043 37.1467 14.2589 37.232 14.0136L38.992 9.3896H40.976L42.704 14.0136C42.832 14.3336 42.9333 14.6429 43.008 14.9416C43.0933 15.2296 43.1627 15.5123 43.216 15.7896C43.2693 16.0563 43.3173 16.3283 43.36 16.6056L43.024 16.6696C43.056 16.4456 43.0773 16.2536 43.088 16.0936C43.1093 15.9229 43.1253 15.7683 43.136 15.6296C43.1573 15.4909 43.1787 15.3523 43.2 15.2136C43.2213 15.0643 43.2533 14.8936 43.296 14.7016C43.3387 14.4989 43.4027 14.2643 43.488 13.9976L45.296 7.7736H47.728L44.288 18.9736H42.496L39.744 12.3496L40 12.3816L37.424 18.9736H35.584ZM52.572 19.1336C51.708 19.1336 50.9347 18.9469 50.252 18.5736C49.58 18.1896 49.0467 17.6669 48.652 17.0056C48.268 16.3443 48.076 15.5869 48.076 14.7336C48.076 13.8803 48.268 13.1229 48.652 12.4616C49.0467 11.8003 49.58 11.2829 50.252 10.9096C50.9347 10.5256 51.708 10.3336 52.572 10.3336C53.4253 10.3336 54.188 10.5256 54.86 10.9096C55.5427 11.2829 56.076 11.8003 56.46 12.4616C56.844 13.1229 57.036 13.8803 57.036 14.7336C57.036 15.5869 56.844 16.3443 56.46 17.0056C56.076 17.6669 55.5427 18.1896 54.86 18.5736C54.188 18.9469 53.4253 19.1336 52.572 19.1336ZM52.572 17.1496C52.988 17.1496 53.3613 17.0483 53.692 16.8456C54.0227 16.6323 54.2787 16.3443 54.46 15.9816C54.652 15.6083 54.7427 15.1923 54.732 14.7336C54.7427 14.2643 54.652 13.8483 54.46 13.4856C54.2787 13.1123 54.0227 12.8243 53.692 12.6216C53.3613 12.4083 52.988 12.3016 52.572 12.3016C52.1453 12.3016 51.7667 12.4083 51.436 12.6216C51.1053 12.8349 50.844 13.1229 50.652 13.4856C50.46 13.8483 50.3693 14.2643 50.38 14.7336C50.3693 15.1923 50.46 15.6083 50.652 15.9816C50.844 16.3443 51.1053 16.6323 51.436 16.8456C51.7667 17.0483 52.1453 17.1496 52.572 17.1496ZM58.761 18.9736V10.5096H60.953L61.033 13.2296L60.649 12.6696C60.777 12.2323 60.985 11.8376 61.273 11.4856C61.561 11.1229 61.897 10.8403 62.281 10.6376C62.6757 10.4349 63.0863 10.3336 63.513 10.3336C63.6943 10.3336 63.8703 10.3496 64.041 10.3816C64.2117 10.4136 64.3557 10.4509 64.473 10.4936L63.865 12.9896C63.7477 12.9256 63.593 12.8723 63.401 12.8296C63.2197 12.7763 63.033 12.7496 62.841 12.7496C62.585 12.7496 62.345 12.7976 62.121 12.8936C61.9077 12.9789 61.721 13.1069 61.561 13.2776C61.401 13.4376 61.273 13.6296 61.177 13.8536C61.0917 14.0776 61.049 14.3229 61.049 14.5896V18.9736H58.761ZM65.7926 18.9736V7.1336H68.0646V18.9736H65.7926ZM73.5261 19.1336C72.7795 19.1336 72.1128 18.9469 71.5261 18.5736C70.9501 18.1896 70.4915 17.6723 70.1501 17.0216C69.8195 16.3603 69.6541 15.5976 69.6541 14.7336C69.6541 13.8909 69.8195 13.1389 70.1501 12.4776C70.4915 11.8056 70.9501 11.2829 71.5261 10.9096C72.1128 10.5256 72.7795 10.3336 73.5261 10.3336C73.9208 10.3336 74.2995 10.3976 74.6621 10.5256C75.0355 10.6429 75.3661 10.8083 75.6541 11.0216C75.9528 11.2349 76.1928 11.4749 76.3741 11.7416C76.5555 11.9976 76.6568 12.2643 76.6781 12.5416L76.1021 12.6536V7.1336H78.3901V18.9736H76.2301L76.1341 17.0216L76.5821 17.0696C76.5608 17.3363 76.4648 17.5923 76.2941 17.8376C76.1235 18.0829 75.8941 18.3069 75.6061 18.5096C75.3288 18.7016 75.0088 18.8563 74.6461 18.9736C74.2941 19.0803 73.9208 19.1336 73.5261 19.1336ZM74.0381 17.2456C74.4648 17.2456 74.8381 17.1389 75.1581 16.9256C75.4781 16.7123 75.7288 16.4189 75.9101 16.0456C76.0915 15.6723 76.1821 15.2349 76.1821 14.7336C76.1821 14.2429 76.0915 13.8109 75.9101 13.4376C75.7288 13.0643 75.4781 12.7709 75.1581 12.5576C74.8381 12.3443 74.4648 12.2376 74.0381 12.2376C73.6115 12.2376 73.2381 12.3443 72.9181 12.5576C72.6088 12.7709 72.3635 13.0643 72.1821 13.4376C72.0115 13.8109 71.9261 14.2429 71.9261 14.7336C71.9261 15.2349 72.0115 15.6723 72.1821 16.0456C72.3635 16.4189 72.6088 16.7123 72.9181 16.9256C73.2381 17.1389 73.6115 17.2456 74.0381 17.2456ZM80.2851 15.4376V13.3256H85.5171V15.4376H80.2851ZM92.7118 19.1336C91.8904 19.1336 91.1331 18.9949 90.4398 18.7176C89.7571 18.4296 89.1598 18.0296 88.6478 17.5176C88.1464 16.9949 87.7571 16.3816 87.4798 15.6776C87.2024 14.9629 87.0638 14.1843 87.0638 13.3416C87.0638 12.5203 87.2078 11.7629 87.4958 11.0696C87.7838 10.3656 88.1891 9.7576 88.7118 9.2456C89.2344 8.72294 89.8478 8.3176 90.5518 8.0296C91.2558 7.7416 92.0184 7.5976 92.8398 7.5976C93.3731 7.5976 93.8958 7.67227 94.4078 7.8216C94.9304 7.96027 95.4051 8.16827 95.8318 8.4456C96.2691 8.72294 96.6424 9.0536 96.9518 9.4376L95.4478 11.1016C95.2024 10.8456 94.9411 10.6269 94.6638 10.4456C94.3864 10.2536 94.0931 10.1096 93.7838 10.0136C93.4851 9.90694 93.1651 9.8536 92.8238 9.8536C92.3651 9.8536 91.9331 9.93893 91.5278 10.1096C91.1331 10.2803 90.7864 10.5203 90.4878 10.8296C90.1891 11.1283 89.9491 11.4963 89.7678 11.9336C89.5971 12.3603 89.5118 12.8349 89.5118 13.3576C89.5118 13.8909 89.5971 14.3763 89.7678 14.8136C89.9384 15.2403 90.1784 15.6083 90.4878 15.9176C90.7971 16.2163 91.1651 16.4509 91.5918 16.6216C92.0291 16.7816 92.5091 16.8616 93.0318 16.8616C93.3731 16.8616 93.7038 16.8136 94.0238 16.7176C94.3438 16.6216 94.6371 16.4883 94.9038 16.3176C95.1811 16.1469 95.4264 15.9496 95.6398 15.7256L96.8238 17.5976C96.5571 17.8856 96.2051 18.1469 95.7678 18.3816C95.3411 18.6163 94.8611 18.8029 94.3278 18.9416C93.7944 19.0696 93.2558 19.1336 92.7118 19.1336ZM98.527 18.9736V7.1336H100.799V18.9736H98.527ZM106.117 19.1336C105.413 19.1336 104.778 18.9416 104.213 18.5576C103.647 18.1736 103.199 17.6509 102.868 16.9896C102.538 16.3283 102.373 15.5709 102.373 14.7176C102.373 13.8643 102.538 13.1069 102.868 12.4456C103.21 11.7843 103.669 11.2669 104.245 10.8936C104.821 10.5203 105.477 10.3336 106.213 10.3336C106.629 10.3336 107.007 10.3976 107.349 10.5256C107.701 10.6429 108.005 10.8083 108.261 11.0216C108.527 11.2349 108.751 11.4803 108.933 11.7576C109.114 12.0349 109.242 12.3336 109.317 12.6536L108.837 12.5736V10.5096H111.093V18.9736H108.805V16.9416L109.317 16.8936C109.231 17.1923 109.093 17.4749 108.901 17.7416C108.709 18.0083 108.469 18.2483 108.181 18.4616C107.903 18.6643 107.589 18.8296 107.237 18.9576C106.885 19.0749 106.511 19.1336 106.117 19.1336ZM106.741 17.1656C107.167 17.1656 107.541 17.0643 107.861 16.8616C108.181 16.6589 108.426 16.3763 108.597 16.0136C108.778 15.6403 108.869 15.2083 108.869 14.7176C108.869 14.2376 108.778 13.8163 108.597 13.4536C108.426 13.0909 108.181 12.8083 107.861 12.6056C107.541 12.3923 107.167 12.2856 106.741 12.2856C106.325 12.2856 105.957 12.3923 105.637 12.6056C105.327 12.8083 105.082 13.0909 104.901 13.4536C104.719 13.8163 104.629 14.2376 104.629 14.7176C104.629 15.2083 104.719 15.6403 104.901 16.0136C105.082 16.3763 105.327 16.6589 105.637 16.8616C105.957 17.0643 106.325 17.1656 106.741 17.1656ZM116.218 19.1336C115.429 19.1336 114.725 19.0056 114.106 18.7496C113.498 18.4829 113.008 18.1203 112.634 17.6616L114.058 16.4456C114.378 16.7976 114.741 17.0536 115.146 17.2136C115.552 17.3629 115.957 17.4376 116.362 17.4376C116.522 17.4376 116.666 17.4216 116.794 17.3896C116.933 17.3469 117.05 17.2936 117.146 17.2296C117.242 17.1549 117.312 17.0696 117.354 16.9736C117.408 16.8669 117.434 16.7549 117.434 16.6376C117.434 16.4029 117.338 16.2216 117.146 16.0936C117.04 16.0296 116.874 15.9603 116.65 15.8856C116.426 15.8003 116.138 15.7096 115.786 15.6136C115.242 15.4749 114.778 15.3149 114.394 15.1336C114.021 14.9416 113.722 14.7283 113.498 14.4936C113.306 14.2696 113.157 14.0296 113.05 13.7736C112.954 13.5069 112.906 13.2136 112.906 12.8936C112.906 12.5096 112.992 12.1629 113.162 11.8536C113.333 11.5336 113.568 11.2616 113.866 11.0376C114.176 10.8136 114.528 10.6429 114.922 10.5256C115.317 10.3976 115.733 10.3336 116.17 10.3336C116.608 10.3336 117.034 10.3869 117.45 10.4936C117.866 10.6003 118.25 10.7549 118.602 10.9576C118.965 11.1496 119.28 11.3789 119.546 11.6456L118.33 12.9896C118.138 12.8083 117.92 12.6429 117.674 12.4936C117.44 12.3443 117.194 12.2269 116.938 12.1416C116.682 12.0563 116.453 12.0136 116.25 12.0136C116.069 12.0136 115.904 12.0296 115.754 12.0616C115.616 12.0936 115.498 12.1469 115.402 12.2216C115.306 12.2856 115.232 12.3656 115.178 12.4616C115.136 12.5576 115.114 12.6643 115.114 12.7816C115.114 12.8989 115.141 13.0109 115.194 13.1176C115.258 13.2243 115.344 13.3149 115.45 13.3896C115.568 13.4536 115.738 13.5283 115.962 13.6136C116.197 13.6989 116.512 13.7949 116.906 13.9016C117.418 14.0403 117.85 14.1949 118.202 14.3656C118.565 14.5363 118.853 14.7336 119.066 14.9576C119.248 15.1496 119.381 15.3683 119.466 15.6136C119.552 15.8589 119.594 16.1309 119.594 16.4296C119.594 16.9523 119.445 17.4163 119.146 17.8216C118.858 18.2269 118.458 18.5469 117.946 18.7816C117.434 19.0163 116.858 19.1336 116.218 19.1336ZM124.062 19.1336C123.273 19.1336 122.569 19.0056 121.95 18.7496C121.342 18.4829 120.851 18.1203 120.478 17.6616L121.902 16.4456C122.222 16.7976 122.585 17.0536 122.99 17.2136C123.395 17.3629 123.801 17.4376 124.206 17.4376C124.366 17.4376 124.51 17.4216 124.638 17.3896C124.777 17.3469 124.894 17.2936 124.99 17.2296C125.086 17.1549 125.155 17.0696 125.198 16.9736C125.251 16.8669 125.278 16.7549 125.278 16.6376C125.278 16.4029 125.182 16.2216 124.99 16.0936C124.883 16.0296 124.718 15.9603 124.494 15.8856C124.27 15.8003 123.982 15.7096 123.63 15.6136C123.086 15.4749 122.622 15.3149 122.238 15.1336C121.865 14.9416 121.566 14.7283 121.342 14.4936C121.15 14.2696 121.001 14.0296 120.894 13.7736C120.798 13.5069 120.75 13.2136 120.75 12.8936C120.75 12.5096 120.835 12.1629 121.006 11.8536C121.177 11.5336 121.411 11.2616 121.71 11.0376C122.019 10.8136 122.371 10.6429 122.766 10.5256C123.161 10.3976 123.577 10.3336 124.014 10.3336C124.451 10.3336 124.878 10.3869 125.294 10.4936C125.71 10.6003 126.094 10.7549 126.446 10.9576C126.809 11.1496 127.123 11.3789 127.39 11.6456L126.174 12.9896C125.982 12.8083 125.763 12.6429 125.518 12.4936C125.283 12.3443 125.038 12.2269 124.782 12.1416C124.526 12.0563 124.297 12.0136 124.094 12.0136C123.913 12.0136 123.747 12.0296 123.598 12.0616C123.459 12.0936 123.342 12.1469 123.246 12.2216C123.15 12.2856 123.075 12.3656 123.022 12.4616C122.979 12.5576 122.958 12.6643 122.958 12.7816C122.958 12.8989 122.985 13.0109 123.038 13.1176C123.102 13.2243 123.187 13.3149 123.294 13.3896C123.411 13.4536 123.582 13.5283 123.806 13.6136C124.041 13.6989 124.355 13.7949 124.75 13.9016C125.262 14.0403 125.694 14.1949 126.046 14.3656C126.409 14.5363 126.697 14.7336 126.91 14.9576C127.091 15.1496 127.225 15.3683 127.31 15.6136C127.395 15.8589 127.438 16.1309 127.438 16.4296C127.438 16.9523 127.289 17.4163 126.99 17.8216C126.702 18.2269 126.302 18.5469 125.79 18.7816C125.278 19.0163 124.702 19.1336 124.062 19.1336Z" fill="black"/>
<ellipse cx="12" cy="12.9728" rx="12" ry="11.9992" fill="#608BFF"/>
<path d="M9.95831 17.9733L5.20831 13.2233L6.39581 12.0358L9.95831 15.5983L17.6041 7.95242L18.7916 9.13992L9.95831 17.9733Z" fill="white"/>
<path d="M209.456 18.9736V7.7736H211.856V18.9736H209.456ZM210.56 14.5256V12.4616H216.352V14.5256H210.56ZM210.56 9.9336V7.7736H217.024V9.9336H210.56ZM218.965 18.9736V7.1336H221.237V18.9736H218.965ZM227.402 19.1336C226.485 19.1336 225.679 18.9469 224.986 18.5736C224.303 18.2003 223.77 17.6883 223.386 17.0376C223.013 16.3869 222.826 15.6403 222.826 14.7976C222.826 14.1363 222.933 13.5336 223.146 12.9896C223.359 12.4456 223.658 11.9763 224.042 11.5816C224.426 11.1763 224.879 10.8669 225.402 10.6536C225.935 10.4296 226.511 10.3176 227.13 10.3176C227.706 10.3176 228.239 10.4243 228.73 10.6376C229.221 10.8509 229.642 11.1496 229.994 11.5336C230.357 11.9069 230.634 12.3549 230.826 12.8776C231.018 13.3896 231.103 13.9443 231.082 14.5416L231.066 15.2456H224.266L223.898 13.8536H229.194L228.938 14.1416V13.7896C228.917 13.5016 228.821 13.2456 228.65 13.0216C228.49 12.7869 228.282 12.6056 228.026 12.4776C227.77 12.3389 227.482 12.2696 227.162 12.2696C226.693 12.2696 226.293 12.3603 225.962 12.5416C225.642 12.7229 225.397 12.9896 225.226 13.3416C225.055 13.6936 224.97 14.1203 224.97 14.6216C224.97 15.1336 225.077 15.5763 225.29 15.9496C225.514 16.3229 225.823 16.6163 226.218 16.8296C226.623 17.0323 227.098 17.1336 227.642 17.1336C228.015 17.1336 228.357 17.0749 228.666 16.9576C228.975 16.8403 229.306 16.6376 229.658 16.3496L230.746 17.8696C230.437 18.1469 230.095 18.3816 229.722 18.5736C229.349 18.7549 228.965 18.8936 228.57 18.9896C228.175 19.0856 227.786 19.1336 227.402 19.1336ZM238.058 18.9736L235.962 15.9816L235.322 15.0856L231.898 10.5096H234.65L236.698 13.4056L237.402 14.3496L240.778 18.9736H238.058ZM231.866 18.9736L235.242 14.3496L236.49 15.8376L234.538 18.9736H231.866ZM237.306 15.1656L236.09 13.6776L237.898 10.5096H240.57L237.306 15.1656ZM242.375 18.9736V10.5096H244.647V18.9736H242.375ZM243.495 8.7816C243.058 8.7816 242.716 8.67494 242.471 8.4616C242.226 8.2376 242.103 7.92827 242.103 7.5336C242.103 7.17094 242.226 6.8776 242.471 6.6536C242.727 6.41893 243.068 6.3016 243.495 6.3016C243.932 6.3016 244.274 6.4136 244.519 6.6376C244.764 6.85093 244.887 7.1496 244.887 7.5336C244.887 7.89627 244.759 8.19493 244.503 8.4296C244.258 8.66427 243.922 8.7816 243.495 8.7816ZM251.954 19.1336C251.58 19.1336 251.218 19.0803 250.866 18.9736C250.514 18.8669 250.194 18.7229 249.906 18.5416C249.618 18.3496 249.378 18.1363 249.186 17.9016C248.994 17.6563 248.871 17.4056 248.818 17.1496L249.33 16.9576L249.218 18.9416H247.074V7.1336H249.362V12.4936L248.914 12.3176C248.978 12.0616 249.1 11.8163 249.282 11.5816C249.463 11.3363 249.692 11.1229 249.97 10.9416C250.247 10.7496 250.551 10.6003 250.882 10.4936C251.212 10.3869 251.554 10.3336 251.906 10.3336C252.642 10.3336 253.298 10.5256 253.874 10.9096C254.46 11.2829 254.919 11.8003 255.25 12.4616C255.58 13.1229 255.746 13.8803 255.746 14.7336C255.746 15.5869 255.58 16.3443 255.25 17.0056C254.93 17.6669 254.482 18.1896 253.906 18.5736C253.33 18.9469 252.679 19.1336 251.954 19.1336ZM251.41 17.1976C251.836 17.1976 252.204 17.0963 252.514 16.8936C252.834 16.6803 253.084 16.3923 253.266 16.0296C253.447 15.6563 253.538 15.2243 253.538 14.7336C253.538 14.2536 253.447 13.8269 253.266 13.4536C253.095 13.0803 252.85 12.7923 252.53 12.5896C252.21 12.3869 251.836 12.2856 251.41 12.2856C250.983 12.2856 250.61 12.3869 250.29 12.5896C249.97 12.7923 249.719 13.0803 249.538 13.4536C249.367 13.8269 249.282 14.2536 249.282 14.7336C249.282 15.2243 249.367 15.6563 249.538 16.0296C249.719 16.3923 249.97 16.6803 250.29 16.8936C250.61 17.0963 250.983 17.1976 251.41 17.1976ZM257.48 18.9736V7.1336H259.752V18.9736H257.48ZM265.918 19.1336C265 19.1336 264.195 18.9469 263.502 18.5736C262.819 18.2003 262.286 17.6883 261.902 17.0376C261.528 16.3869 261.342 15.6403 261.342 14.7976C261.342 14.1363 261.448 13.5336 261.662 12.9896C261.875 12.4456 262.174 11.9763 262.558 11.5816C262.942 11.1763 263.395 10.8669 263.918 10.6536C264.451 10.4296 265.027 10.3176 265.646 10.3176C266.222 10.3176 266.755 10.4243 267.246 10.6376C267.736 10.8509 268.158 11.1496 268.51 11.5336C268.872 11.9069 269.15 12.3549 269.342 12.8776C269.534 13.3896 269.619 13.9443 269.598 14.5416L269.582 15.2456H262.782L262.414 13.8536H267.71L267.454 14.1416V13.7896C267.432 13.5016 267.336 13.2456 267.166 13.0216C267.006 12.7869 266.798 12.6056 266.542 12.4776C266.286 12.3389 265.998 12.2696 265.678 12.2696C265.208 12.2696 264.808 12.3603 264.478 12.5416C264.158 12.7229 263.912 12.9896 263.742 13.3416C263.571 13.6936 263.486 14.1203 263.486 14.6216C263.486 15.1336 263.592 15.5763 263.806 15.9496C264.03 16.3229 264.339 16.6163 264.734 16.8296C265.139 17.0323 265.614 17.1336 266.158 17.1336C266.531 17.1336 266.872 17.0749 267.182 16.9576C267.491 16.8403 267.822 16.6376 268.174 16.3496L269.262 17.8696C268.952 18.1469 268.611 18.3816 268.238 18.5736C267.864 18.7549 267.48 18.8936 267.086 18.9896C266.691 19.0856 266.302 19.1336 265.918 19.1336Z" fill="black"/>
<ellipse cx="188" cy="12.9728" rx="12" ry="11.9992" fill="#608BFF"/>
<path d="M185.958 17.9733L181.208 13.2233L182.396 12.0358L185.958 15.5983L193.604 7.95242L194.792 9.13992L185.958 17.9733Z" fill="white"/>
</svg>
