<svg width="311" height="25" viewBox="0 0 311 25" fill="none" xmlns="http://www.w3.org/2000/svg">
<path d="M32.112 18.9703L36.512 7.77031H38.656L43.024 18.9703H40.56L38.304 12.9383C38.24 12.7676 38.16 12.549 38.064 12.2823C37.9787 12.0156 37.888 11.733 37.792 11.4343C37.696 11.1356 37.6053 10.853 37.52 10.5863C37.4347 10.309 37.3707 10.0796 37.328 9.89831H37.76C37.696 10.133 37.6213 10.3836 37.536 10.6503C37.4613 10.9063 37.3813 11.173 37.296 11.4503C37.2107 11.717 37.12 11.9783 37.024 12.2343C36.928 12.4903 36.8373 12.741 36.752 12.9863L34.496 18.9703H32.112ZM34.16 16.6183L34.944 14.6983H40.08L40.88 16.6183H34.16ZM44.6201 18.9703V9.91431C44.6201 9.39164 44.7375 8.91697 44.9721 8.49031C45.2068 8.06364 45.5268 7.72764 45.9321 7.48231C46.3481 7.23697 46.8335 7.11431 47.3881 7.11431C47.7615 7.11431 48.1135 7.17831 48.4441 7.30631C48.7748 7.42364 49.0575 7.58364 49.2921 7.78631L48.6201 9.46631C48.4815 9.38097 48.3375 9.31164 48.1881 9.25831C48.0495 9.19431 47.9215 9.16231 47.8041 9.16231C47.6015 9.16231 47.4308 9.19964 47.2921 9.27431C47.1641 9.33831 47.0681 9.43964 47.0041 9.57831C46.9401 9.70631 46.9081 9.87164 46.9081 10.0743V18.9703H45.7721C45.5268 18.9703 45.3081 18.9703 45.1161 18.9703C44.9241 18.9703 44.7588 18.9703 44.6201 18.9703ZM43.3561 12.6343V10.7143H48.7321V12.6343H43.3561ZM50.9081 18.9703V9.91431C50.9081 9.39164 51.0255 8.91697 51.2601 8.49031C51.4948 8.06364 51.8148 7.72764 52.2201 7.48231C52.6361 7.23697 53.1215 7.11431 53.6761 7.11431C54.0495 7.11431 54.4015 7.17831 54.7321 7.30631C55.0628 7.42364 55.3455 7.58364 55.5801 7.78631L54.9081 9.46631C54.7695 9.38097 54.6255 9.31164 54.4761 9.25831C54.3375 9.19431 54.2095 9.16231 54.0921 9.16231C53.8895 9.16231 53.7188 9.19964 53.5801 9.27431C53.4521 9.33831 53.3561 9.43964 53.2921 9.57831C53.2281 9.70631 53.1961 9.87164 53.1961 10.0743V18.9703H52.0601C51.8148 18.9703 51.5961 18.9703 51.4041 18.9703C51.2121 18.9703 51.0468 18.9703 50.9081 18.9703ZM49.6441 12.6343V10.7143H55.0201V12.6343H49.6441ZM60.1658 19.1303C59.3018 19.1303 58.5284 18.9436 57.8458 18.5703C57.1738 18.1863 56.6404 17.6636 56.2458 17.0023C55.8618 16.341 55.6698 15.5836 55.6698 14.7303C55.6698 13.877 55.8618 13.1196 56.2458 12.4583C56.6404 11.797 57.1738 11.2796 57.8458 10.9063C58.5284 10.5223 59.3018 10.3303 60.1658 10.3303C61.0191 10.3303 61.7818 10.5223 62.4538 10.9063C63.1364 11.2796 63.6698 11.797 64.0538 12.4583C64.4378 13.1196 64.6298 13.877 64.6298 14.7303C64.6298 15.5836 64.4378 16.341 64.0538 17.0023C63.6698 17.6636 63.1364 18.1863 62.4538 18.5703C61.7818 18.9436 61.0191 19.1303 60.1658 19.1303ZM60.1658 17.1463C60.5818 17.1463 60.9551 17.045 61.2858 16.8423C61.6164 16.629 61.8724 16.341 62.0538 15.9783C62.2458 15.605 62.3364 15.189 62.3258 14.7303C62.3364 14.261 62.2458 13.845 62.0538 13.4823C61.8724 13.109 61.6164 12.821 61.2858 12.6183C60.9551 12.405 60.5818 12.2983 60.1658 12.2983C59.7391 12.2983 59.3604 12.405 59.0298 12.6183C58.6991 12.8316 58.4378 13.1196 58.2458 13.4823C58.0538 13.845 57.9631 14.261 57.9738 14.7303C57.9631 15.189 58.0538 15.605 58.2458 15.9783C58.4378 16.341 58.6991 16.629 59.0298 16.8423C59.3604 17.045 59.7391 17.1463 60.1658 17.1463ZM66.3548 18.9703V10.5063H68.5468L68.6268 13.2263L68.2428 12.6663C68.3708 12.229 68.5788 11.8343 68.8668 11.4823C69.1548 11.1196 69.4908 10.837 69.8748 10.6343C70.2694 10.4316 70.6801 10.3303 71.1068 10.3303C71.2881 10.3303 71.4641 10.3463 71.6348 10.3783C71.8054 10.4103 71.9494 10.4476 72.0668 10.4903L71.4588 12.9863C71.3414 12.9223 71.1868 12.869 70.9948 12.8263C70.8134 12.773 70.6268 12.7463 70.4348 12.7463C70.1788 12.7463 69.9388 12.7943 69.7148 12.8903C69.5014 12.9756 69.3148 13.1036 69.1548 13.2743C68.9948 13.4343 68.8668 13.6263 68.7708 13.8503C68.6854 14.0743 68.6428 14.3196 68.6428 14.5863V18.9703H66.3548ZM76.323 19.1303C75.5763 19.1303 74.9097 18.9436 74.323 18.5703C73.747 18.1863 73.2883 17.669 72.947 17.0183C72.6163 16.357 72.451 15.5943 72.451 14.7303C72.451 13.8876 72.6163 13.1356 72.947 12.4743C73.2883 11.8023 73.747 11.2796 74.323 10.9063C74.9097 10.5223 75.5763 10.3303 76.323 10.3303C76.7177 10.3303 77.0963 10.3943 77.459 10.5223C77.8323 10.6396 78.163 10.805 78.451 11.0183C78.7497 11.2316 78.9897 11.4716 79.171 11.7383C79.3523 11.9943 79.4537 12.261 79.475 12.5383L78.899 12.6503V7.13031H81.187V18.9703H79.027L78.931 17.0183L79.379 17.0663C79.3577 17.333 79.2617 17.589 79.091 17.8343C78.9203 18.0796 78.691 18.3036 78.403 18.5063C78.1257 18.6983 77.8057 18.853 77.443 18.9703C77.091 19.077 76.7177 19.1303 76.323 19.1303ZM76.835 17.2423C77.2617 17.2423 77.635 17.1356 77.955 16.9223C78.275 16.709 78.5257 16.4156 78.707 16.0423C78.8883 15.669 78.979 15.2316 78.979 14.7303C78.979 14.2396 78.8883 13.8076 78.707 13.4343C78.5257 13.061 78.275 12.7676 77.955 12.5543C77.635 12.341 77.2617 12.2343 76.835 12.2343C76.4083 12.2343 76.035 12.341 75.715 12.5543C75.4057 12.7676 75.1603 13.061 74.979 13.4343C74.8083 13.8076 74.723 14.2396 74.723 14.7303C74.723 15.2316 74.8083 15.669 74.979 16.0423C75.1603 16.4156 75.4057 16.709 75.715 16.9223C76.035 17.1356 76.4083 17.2423 76.835 17.2423ZM86.554 19.1303C85.85 19.1303 85.2153 18.9383 84.65 18.5543C84.0847 18.1703 83.6367 17.6476 83.306 16.9863C82.9753 16.325 82.81 15.5676 82.81 14.7143C82.81 13.861 82.9753 13.1036 83.306 12.4423C83.6473 11.781 84.106 11.2636 84.682 10.8903C85.258 10.517 85.914 10.3303 86.65 10.3303C87.066 10.3303 87.4447 10.3943 87.786 10.5223C88.138 10.6396 88.442 10.805 88.698 11.0183C88.9647 11.2316 89.1887 11.477 89.37 11.7543C89.5513 12.0316 89.6793 12.3303 89.754 12.6503L89.274 12.5703V10.5063H91.53V18.9703H89.242V16.9383L89.754 16.8903C89.6687 17.189 89.53 17.4716 89.338 17.7383C89.146 18.005 88.906 18.245 88.618 18.4583C88.3407 18.661 88.026 18.8263 87.674 18.9543C87.322 19.0716 86.9487 19.1303 86.554 19.1303ZM87.178 17.1623C87.6047 17.1623 87.978 17.061 88.298 16.8583C88.618 16.6556 88.8633 16.373 89.034 16.0103C89.2153 15.637 89.306 15.205 89.306 14.7143C89.306 14.2343 89.2153 13.813 89.034 13.4503C88.8633 13.0876 88.618 12.805 88.298 12.6023C87.978 12.389 87.6047 12.2823 87.178 12.2823C86.762 12.2823 86.394 12.389 86.074 12.6023C85.7647 12.805 85.5193 13.0876 85.338 13.4503C85.1567 13.813 85.066 14.2343 85.066 14.7143C85.066 15.205 85.1567 15.637 85.338 16.0103C85.5193 16.373 85.7647 16.6556 86.074 16.8583C86.394 17.061 86.762 17.1623 87.178 17.1623ZM98.6879 19.1303C98.3145 19.1303 97.9519 19.077 97.5999 18.9703C97.2479 18.8636 96.9279 18.7196 96.6399 18.5383C96.3519 18.3463 96.1119 18.133 95.9199 17.8983C95.7279 17.653 95.6052 17.4023 95.5519 17.1463L96.0639 16.9543L95.9519 18.9383H93.8079V7.13031H96.0959V12.4903L95.6479 12.3143C95.7119 12.0583 95.8345 11.813 96.0159 11.5783C96.1972 11.333 96.4265 11.1196 96.7039 10.9383C96.9812 10.7463 97.2852 10.597 97.6159 10.4903C97.9465 10.3836 98.2879 10.3303 98.6399 10.3303C99.3759 10.3303 100.032 10.5223 100.608 10.9063C101.195 11.2796 101.653 11.797 101.984 12.4583C102.315 13.1196 102.48 13.877 102.48 14.7303C102.48 15.5836 102.315 16.341 101.984 17.0023C101.664 17.6636 101.216 18.1863 100.64 18.5703C100.064 18.9436 99.4132 19.1303 98.6879 19.1303ZM98.1439 17.1943C98.5705 17.1943 98.9385 17.093 99.2479 16.8903C99.5679 16.677 99.8185 16.389 99.9999 16.0263C100.181 15.653 100.272 15.221 100.272 14.7303C100.272 14.2503 100.181 13.8236 99.9999 13.4503C99.8292 13.077 99.5839 12.789 99.2639 12.5863C98.9439 12.3836 98.5705 12.2823 98.1439 12.2823C97.7172 12.2823 97.3439 12.3836 97.0239 12.5863C96.7039 12.789 96.4532 13.077 96.2719 13.4503C96.1012 13.8236 96.0159 14.2503 96.0159 14.7303C96.0159 15.221 96.1012 15.653 96.2719 16.0263C96.4532 16.389 96.7039 16.677 97.0239 16.8903C97.3439 17.093 97.7172 17.1943 98.1439 17.1943ZM104.215 18.9703V7.13031H106.487V18.9703H104.215ZM112.652 19.1303C111.735 19.1303 110.929 18.9436 110.236 18.5703C109.553 18.197 109.02 17.685 108.636 17.0343C108.263 16.3836 108.076 15.637 108.076 14.7943C108.076 14.133 108.183 13.5303 108.396 12.9863C108.609 12.4423 108.908 11.973 109.292 11.5783C109.676 11.173 110.129 10.8636 110.652 10.6503C111.185 10.4263 111.761 10.3143 112.38 10.3143C112.956 10.3143 113.489 10.421 113.98 10.6343C114.471 10.8476 114.892 11.1463 115.244 11.5303C115.607 11.9036 115.884 12.3516 116.076 12.8743C116.268 13.3863 116.353 13.941 116.332 14.5383L116.316 15.2423H109.516L109.148 13.8503H114.444L114.188 14.1383V13.7863C114.167 13.4983 114.071 13.2423 113.9 13.0183C113.74 12.7836 113.532 12.6023 113.276 12.4743C113.02 12.3356 112.732 12.2663 112.412 12.2663C111.943 12.2663 111.543 12.357 111.212 12.5383C110.892 12.7196 110.647 12.9863 110.476 13.3383C110.305 13.6903 110.22 14.117 110.22 14.6183C110.22 15.1303 110.327 15.573 110.54 15.9463C110.764 16.3196 111.073 16.613 111.468 16.8263C111.873 17.029 112.348 17.1303 112.892 17.1303C113.265 17.1303 113.607 17.0716 113.916 16.9543C114.225 16.837 114.556 16.6343 114.908 16.3463L115.996 17.8663C115.687 18.1436 115.345 18.3783 114.972 18.5703C114.599 18.7516 114.215 18.8903 113.82 18.9863C113.425 19.0823 113.036 19.1303 112.652 19.1303Z" fill="black"/>
<ellipse cx="12" cy="12.9695" rx="12" ry="11.9992" fill="#608BFF"/>
<path d="M9.95831 17.97L5.20831 13.22L6.39581 12.0325L9.95831 15.595L17.6041 7.94913L18.7916 9.13663L9.95831 17.97Z" fill="white"/>
<path d="M212.16 19.1303C211.755 19.1303 211.376 19.0823 211.024 18.9863C210.672 18.8903 210.352 18.757 210.064 18.5863C209.776 18.4156 209.515 18.2076 209.28 17.9623C209.045 17.7063 208.848 17.4236 208.688 17.1143L210.08 15.6583C210.261 15.9036 210.427 16.1063 210.576 16.2663C210.736 16.4263 210.885 16.5596 211.024 16.6663C211.173 16.7623 211.323 16.8316 211.472 16.8743C211.621 16.9063 211.781 16.9223 211.952 16.9223C212.251 16.9223 212.512 16.853 212.736 16.7143C212.971 16.5756 213.147 16.3836 213.264 16.1383C213.392 15.893 213.456 15.6103 213.456 15.2903V9.89831H211.408V7.77031H217.536V9.89831H215.808V15.5623C215.808 16.0956 215.717 16.581 215.536 17.0183C215.355 17.4556 215.099 17.8343 214.768 18.1543C214.437 18.4636 214.048 18.7036 213.6 18.8743C213.163 19.045 212.683 19.1303 212.16 19.1303ZM222.806 19.1303C221.942 19.1303 221.169 18.9436 220.486 18.5703C219.814 18.1863 219.281 17.6636 218.886 17.0023C218.502 16.341 218.31 15.5836 218.31 14.7303C218.31 13.877 218.502 13.1196 218.886 12.4583C219.281 11.797 219.814 11.2796 220.486 10.9063C221.169 10.5223 221.942 10.3303 222.806 10.3303C223.66 10.3303 224.422 10.5223 225.094 10.9063C225.777 11.2796 226.31 11.797 226.694 12.4583C227.078 13.1196 227.27 13.877 227.27 14.7303C227.27 15.5836 227.078 16.341 226.694 17.0023C226.31 17.6636 225.777 18.1863 225.094 18.5703C224.422 18.9436 223.66 19.1303 222.806 19.1303ZM222.806 17.1463C223.222 17.1463 223.596 17.045 223.926 16.8423C224.257 16.629 224.513 16.341 224.694 15.9783C224.886 15.605 224.977 15.189 224.966 14.7303C224.977 14.261 224.886 13.845 224.694 13.4823C224.513 13.109 224.257 12.821 223.926 12.6183C223.596 12.405 223.222 12.2983 222.806 12.2983C222.38 12.2983 222.001 12.405 221.67 12.6183C221.34 12.8316 221.078 13.1196 220.886 13.4823C220.694 13.845 220.604 14.261 220.614 14.7303C220.604 15.189 220.694 15.605 220.886 15.9783C221.078 16.341 221.34 16.629 221.67 16.8423C222.001 17.045 222.38 17.1463 222.806 17.1463ZM233.875 19.1303C233.502 19.1303 233.139 19.077 232.787 18.9703C232.435 18.8636 232.115 18.7196 231.827 18.5383C231.539 18.3463 231.299 18.133 231.107 17.8983C230.915 17.653 230.793 17.4023 230.739 17.1463L231.251 16.9543L231.139 18.9383H228.995V7.13031H231.283V12.4903L230.835 12.3143C230.899 12.0583 231.022 11.813 231.203 11.5783C231.385 11.333 231.614 11.1196 231.891 10.9383C232.169 10.7463 232.473 10.597 232.803 10.4903C233.134 10.3836 233.475 10.3303 233.827 10.3303C234.563 10.3303 235.219 10.5223 235.795 10.9063C236.382 11.2796 236.841 11.797 237.171 12.4583C237.502 13.1196 237.667 13.877 237.667 14.7303C237.667 15.5836 237.502 16.341 237.171 17.0023C236.851 17.6636 236.403 18.1863 235.827 18.5703C235.251 18.9436 234.601 19.1303 233.875 19.1303ZM233.331 17.1943C233.758 17.1943 234.126 17.093 234.435 16.8903C234.755 16.677 235.006 16.389 235.187 16.0263C235.369 15.653 235.459 15.221 235.459 14.7303C235.459 14.2503 235.369 13.8236 235.187 13.4503C235.017 13.077 234.771 12.789 234.451 12.5863C234.131 12.3836 233.758 12.2823 233.331 12.2823C232.905 12.2823 232.531 12.3836 232.211 12.5863C231.891 12.789 231.641 13.077 231.459 13.4503C231.289 13.8236 231.203 14.2503 231.203 14.7303C231.203 15.221 231.289 15.653 231.459 16.0263C231.641 16.389 231.891 16.677 232.211 16.8903C232.531 17.093 232.905 17.1943 233.331 17.1943ZM239.082 15.4343V13.3223H244.314V15.4343H239.082ZM246.277 18.9703V10.5063H248.469L248.549 13.2263L248.165 12.6663C248.293 12.229 248.501 11.8343 248.789 11.4823C249.077 11.1196 249.413 10.837 249.797 10.6343C250.191 10.4316 250.602 10.3303 251.029 10.3303C251.21 10.3303 251.386 10.3463 251.557 10.3783C251.727 10.4103 251.871 10.4476 251.989 10.4903L251.381 12.9863C251.263 12.9223 251.109 12.869 250.917 12.8263C250.735 12.773 250.549 12.7463 250.357 12.7463C250.101 12.7463 249.861 12.7943 249.637 12.8903C249.423 12.9756 249.237 13.1036 249.077 13.2743C248.917 13.4343 248.789 13.6263 248.693 13.8503C248.607 14.0743 248.565 14.3196 248.565 14.5863V18.9703H246.277ZM256.949 19.1303C256.032 19.1303 255.226 18.9436 254.533 18.5703C253.85 18.197 253.317 17.685 252.933 17.0343C252.56 16.3836 252.373 15.637 252.373 14.7943C252.373 14.133 252.48 13.5303 252.693 12.9863C252.906 12.4423 253.205 11.973 253.589 11.5783C253.973 11.173 254.426 10.8636 254.949 10.6503C255.482 10.4263 256.058 10.3143 256.677 10.3143C257.253 10.3143 257.786 10.421 258.277 10.6343C258.768 10.8476 259.189 11.1463 259.541 11.5303C259.904 11.9036 260.181 12.3516 260.373 12.8743C260.565 13.3863 260.65 13.941 260.629 14.5383L260.613 15.2423H253.813L253.445 13.8503H258.741L258.485 14.1383V13.7863C258.464 13.4983 258.368 13.2423 258.197 13.0183C258.037 12.7836 257.829 12.6023 257.573 12.4743C257.317 12.3356 257.029 12.2663 256.709 12.2663C256.24 12.2663 255.84 12.357 255.509 12.5383C255.189 12.7196 254.944 12.9863 254.773 13.3383C254.602 13.6903 254.517 14.117 254.517 14.6183C254.517 15.1303 254.624 15.573 254.837 15.9463C255.061 16.3196 255.37 16.613 255.765 16.8263C256.17 17.029 256.645 17.1303 257.189 17.1303C257.562 17.1303 257.904 17.0716 258.213 16.9543C258.522 16.837 258.853 16.6343 259.205 16.3463L260.293 17.8663C259.984 18.1436 259.642 18.3783 259.269 18.5703C258.896 18.7516 258.512 18.8903 258.117 18.9863C257.722 19.0823 257.333 19.1303 256.949 19.1303ZM262.324 18.9703V7.13031H264.596V18.9703H262.324ZM270.761 19.1303C269.844 19.1303 269.039 18.9436 268.345 18.5703C267.663 18.197 267.129 17.685 266.745 17.0343C266.372 16.3836 266.185 15.637 266.185 14.7943C266.185 14.133 266.292 13.5303 266.505 12.9863C266.719 12.4423 267.017 11.973 267.401 11.5783C267.785 11.173 268.239 10.8636 268.761 10.6503C269.295 10.4263 269.871 10.3143 270.489 10.3143C271.065 10.3143 271.599 10.421 272.089 10.6343C272.58 10.8476 273.001 11.1463 273.353 11.5303C273.716 11.9036 273.993 12.3516 274.185 12.8743C274.377 13.3863 274.463 13.941 274.441 14.5383L274.425 15.2423H267.625L267.257 13.8503H272.553L272.297 14.1383V13.7863C272.276 13.4983 272.18 13.2423 272.009 13.0183C271.849 12.7836 271.641 12.6023 271.385 12.4743C271.129 12.3356 270.841 12.2663 270.521 12.2663C270.052 12.2663 269.652 12.357 269.321 12.5383C269.001 12.7196 268.756 12.9863 268.585 13.3383C268.415 13.6903 268.329 14.117 268.329 14.6183C268.329 15.1303 268.436 15.573 268.649 15.9463C268.873 16.3196 269.183 16.613 269.577 16.8263C269.983 17.029 270.457 17.1303 271.001 17.1303C271.375 17.1303 271.716 17.0716 272.025 16.9543C272.335 16.837 272.665 16.6343 273.017 16.3463L274.105 17.8663C273.796 18.1436 273.455 18.3783 273.081 18.5703C272.708 18.7516 272.324 18.8903 271.929 18.9863C271.535 19.0823 271.145 19.1303 270.761 19.1303ZM278.62 18.9703L275.068 10.5063H277.564L279.82 16.8263L279.292 16.9223L281.66 10.5063H284.092L280.364 18.9703H278.62ZM288.413 19.1303C287.709 19.1303 287.075 18.9383 286.509 18.5543C285.944 18.1703 285.496 17.6476 285.165 16.9863C284.835 16.325 284.669 15.5676 284.669 14.7143C284.669 13.861 284.835 13.1036 285.165 12.4423C285.507 11.781 285.965 11.2636 286.541 10.8903C287.117 10.517 287.773 10.3303 288.509 10.3303C288.925 10.3303 289.304 10.3943 289.645 10.5223C289.997 10.6396 290.301 10.805 290.557 11.0183C290.824 11.2316 291.048 11.477 291.229 11.7543C291.411 12.0316 291.539 12.3303 291.613 12.6503L291.133 12.5703V10.5063H293.389V18.9703H291.101V16.9383L291.613 16.8903C291.528 17.189 291.389 17.4716 291.197 17.7383C291.005 18.005 290.765 18.245 290.477 18.4583C290.2 18.661 289.885 18.8263 289.533 18.9543C289.181 19.0716 288.808 19.1303 288.413 19.1303ZM289.037 17.1623C289.464 17.1623 289.837 17.061 290.157 16.8583C290.477 16.6556 290.723 16.373 290.893 16.0103C291.075 15.637 291.165 15.205 291.165 14.7143C291.165 14.2343 291.075 13.813 290.893 13.4503C290.723 13.0876 290.477 12.805 290.157 12.6023C289.837 12.389 289.464 12.2823 289.037 12.2823C288.621 12.2823 288.253 12.389 287.933 12.6023C287.624 12.805 287.379 13.0876 287.197 13.4503C287.016 13.813 286.925 14.2343 286.925 14.7143C286.925 15.205 287.016 15.637 287.197 16.0103C287.379 16.373 287.624 16.6556 287.933 16.8583C288.253 17.061 288.621 17.1623 289.037 17.1623ZM295.667 18.9703V10.5063H297.843L297.907 12.2343L297.459 12.4263C297.577 12.0423 297.785 11.6956 298.083 11.3863C298.393 11.0663 298.761 10.8103 299.187 10.6183C299.614 10.4263 300.062 10.3303 300.531 10.3303C301.171 10.3303 301.705 10.4583 302.131 10.7143C302.569 10.9703 302.894 11.3596 303.107 11.8823C303.331 12.3943 303.443 13.029 303.443 13.7863V18.9703H301.171V13.9623C301.171 13.5783 301.118 13.2583 301.011 13.0023C300.905 12.7463 300.739 12.5596 300.515 12.4423C300.302 12.325 300.035 12.2716 299.715 12.2823C299.459 12.2823 299.219 12.325 298.995 12.4103C298.782 12.485 298.595 12.597 298.435 12.7463C298.286 12.8956 298.163 13.0663 298.067 13.2583C297.982 13.4503 297.939 13.6583 297.939 13.8823V18.9703H296.819C296.574 18.9703 296.355 18.9703 296.163 18.9703C295.971 18.9703 295.806 18.9703 295.667 18.9703ZM306.436 18.9703V8.36231H308.708V18.9703H306.436ZM304.852 12.5383V10.5063H310.452V12.5383H304.852Z" fill="black"/>
<ellipse cx="188" cy="12.9695" rx="12" ry="11.9992" fill="#608BFF"/>
<path d="M185.958 17.97L181.208 13.22L182.396 12.0325L185.958 15.595L193.604 7.94913L194.792 9.13663L185.958 17.97Z" fill="white"/>
</svg>
